<?xml version="1.0" encoding="utf-8"?>
<svg width="200px" height="200px" viewBox="0 0 200 200" version="1.1" xmlns:xlink="http://www.w3.org/1999/xlink" xmlns="http://www.w3.org/2000/svg">
  <defs>
    <linearGradient x1="1" y1="0.5" x2="0" y2="0.5" id="gradient_1">
      <stop offset="0" stop-color="#8743FF" />
      <stop offset="1" stop-color="#4136F1" />
    </linearGradient>
    <path d="M0 0L200 0L200 200L0 200L0 0Z" id="path_1" />
    <clipPath id="mask_1">
      <use xlink:href="#path_1" />
    </clipPath>
  </defs>
  <g id="umockup-brand">
    <g id="Mask-group">
      <path d="M0 0L200 0L200 200L0 200L0 0Z" id="artboard_1" fill="none" fill-rule="evenodd" stroke="none" />
      <g clip-path="url(#mask_1)">
        <g id="Artboard">
          <path d="M0 0L200 0L200 200L0 200L0 0Z" id="artboard_1" fill="#F0F2F7" fill-opacity="0" fill-rule="evenodd" stroke="none" />
          <path d="M29.999 0L170.001 0C170.492 0 170.982 0.012045 171.473 0.0361351C171.964 0.0602252 172.453 0.0963311 172.941 0.144453C173.43 0.192575 173.917 0.252655 174.403 0.324694C174.888 0.396732 175.372 0.480641 175.853 0.576422C176.335 0.672203 176.814 0.779739 177.29 0.899032C177.767 1.01832 178.24 1.14923 178.709 1.29175C179.179 1.43426 179.645 1.58822 180.107 1.75362C180.57 1.91902 181.028 2.09566 181.481 2.28354C181.934 2.47142 182.383 2.67031 182.827 2.88022C183.271 3.09013 183.709 3.31081 184.142 3.54224C184.575 3.77368 185.003 4.0156 185.424 4.268C185.845 4.5204 186.259 4.78298 186.668 5.05574C187.076 5.3285 187.477 5.61111 187.871 5.90358C188.266 6.19604 188.653 6.498 189.032 6.80946C189.411 7.12092 189.783 7.4415 190.147 7.77121C190.511 8.10092 190.867 8.43935 191.214 8.7865C191.561 9.13366 191.899 9.48913 192.229 9.8529C192.558 10.2167 192.879 10.5883 193.191 10.9678C193.502 11.3473 193.804 11.7343 194.096 12.1286C194.389 12.5229 194.671 12.9242 194.944 13.3324C195.217 13.7407 195.479 14.1553 195.732 14.5764C195.985 14.9975 196.227 15.4246 196.458 15.8576C196.689 16.2905 196.91 16.7289 197.12 17.1728C197.33 17.6166 197.529 18.0653 197.716 18.5189C197.904 18.9725 198.081 19.4304 198.246 19.8926C198.411 20.3549 198.565 20.8209 198.708 21.2908C198.851 21.7606 198.982 22.2336 199.101 22.7098C199.22 23.1861 199.328 23.665 199.424 24.1465C199.519 24.628 199.603 25.1116 199.675 25.5972C199.747 26.0829 199.807 26.57 199.856 27.0586C199.904 27.5472 199.94 28.0367 199.964 28.527C199.988 29.0174 200 29.5081 200 29.999L200 170.001C200 170.492 199.988 170.982 199.964 171.473C199.94 171.964 199.904 172.453 199.856 172.941C199.807 173.43 199.747 173.917 199.675 174.403C199.603 174.888 199.519 175.372 199.424 175.853C199.328 176.335 199.22 176.814 199.101 177.29C198.982 177.767 198.851 178.24 198.708 178.709C198.565 179.179 198.411 179.645 198.246 180.107C198.081 180.57 197.904 181.028 197.716 181.481C197.529 181.934 197.33 182.383 197.12 182.827C196.91 183.271 196.689 183.709 196.458 184.142C196.227 184.575 195.985 185.003 195.732 185.424C195.479 185.845 195.217 186.259 194.944 186.668C194.671 187.076 194.389 187.477 194.096 187.871C193.804 188.266 193.502 188.653 193.191 189.032C192.879 189.411 192.558 189.783 192.229 190.147C191.899 190.511 191.561 190.867 191.214 191.214C190.867 191.561 190.511 191.899 190.147 192.229C189.783 192.558 189.411 192.879 189.032 193.191C188.653 193.502 188.266 193.804 187.871 194.096C187.477 194.389 187.076 194.671 186.668 194.944C186.259 195.217 185.845 195.479 185.424 195.732C185.003 195.985 184.575 196.227 184.142 196.458C183.709 196.689 183.271 196.91 182.827 197.12C182.383 197.33 181.934 197.529 181.481 197.716C181.028 197.904 180.57 198.081 180.107 198.246C179.645 198.411 179.179 198.565 178.709 198.708C178.24 198.851 177.767 198.982 177.29 199.101C176.814 199.22 176.335 199.328 175.853 199.424C175.372 199.519 174.888 199.603 174.403 199.675C173.917 199.747 173.43 199.807 172.941 199.856C172.453 199.904 171.964 199.94 171.473 199.964C170.982 199.988 170.492 200 170.001 200L29.999 200C29.5081 200 29.0174 199.988 28.527 199.964C28.0367 199.94 27.5472 199.904 27.0586 199.856C26.57 199.807 26.0829 199.747 25.5972 199.675C25.1116 199.603 24.628 199.519 24.1465 199.424C23.665 199.328 23.1861 199.22 22.7098 199.101C22.2336 198.982 21.7606 198.851 21.2907 198.708C20.8209 198.565 20.3549 198.411 19.8926 198.246C19.4304 198.081 18.9725 197.904 18.5189 197.716C18.0653 197.529 17.6166 197.33 17.1728 197.12C16.7289 196.91 16.2905 196.689 15.8576 196.458C15.4246 196.227 14.9975 195.985 14.5764 195.732C14.1553 195.479 13.7407 195.217 13.3324 194.944C12.9242 194.671 12.5229 194.389 12.1286 194.096C11.7343 193.804 11.3473 193.502 10.9678 193.191C10.5883 192.879 10.2167 192.558 9.8529 192.229C9.48913 191.899 9.13366 191.561 8.7865 191.214C8.43935 190.867 8.10092 190.511 7.77121 190.147C7.4415 189.783 7.12092 189.411 6.80946 189.032C6.498 188.653 6.19604 188.266 5.90358 187.871C5.61111 187.477 5.3285 187.076 5.05574 186.668C4.78298 186.259 4.5204 185.845 4.268 185.424C4.0156 185.003 3.77368 184.575 3.54224 184.142C3.31081 183.709 3.09013 183.271 2.88022 182.827C2.67031 182.383 2.47142 181.934 2.28354 181.481C2.09566 181.028 1.91902 180.57 1.75362 180.107C1.58822 179.645 1.43426 179.179 1.29175 178.709C1.14923 178.24 1.01832 177.767 0.899032 177.29C0.779739 176.814 0.672203 176.335 0.576422 175.853C0.480641 175.372 0.396732 174.888 0.324694 174.403C0.252655 173.917 0.192575 173.43 0.144453 172.941C0.0963311 172.453 0.0602252 171.964 0.0361351 171.473C0.012045 170.982 0 170.492 0 170.001L0 29.999C0 29.5081 0.012045 29.0174 0.0361351 28.527C0.0602252 28.0367 0.0963311 27.5472 0.144453 27.0586C0.192575 26.57 0.252655 26.0829 0.324694 25.5972C0.396732 25.1116 0.480641 24.628 0.576422 24.1465C0.672203 23.665 0.779739 23.1861 0.899032 22.7098C1.01832 22.2336 1.14923 21.7606 1.29175 21.2907C1.43426 20.8209 1.58822 20.3549 1.75362 19.8926C1.91902 19.4304 2.09566 18.9725 2.28354 18.5189C2.47142 18.0653 2.67031 17.6166 2.88022 17.1728C3.09013 16.7289 3.31081 16.2905 3.54224 15.8576C3.77368 15.4246 4.0156 14.9975 4.268 14.5764C4.5204 14.1553 4.78298 13.7407 5.05574 13.3324C5.3285 12.9242 5.61111 12.5229 5.90358 12.1286C6.19604 11.7343 6.498 11.3473 6.80946 10.9678C7.12092 10.5883 7.4415 10.2167 7.77121 9.8529C8.10092 9.48913 8.43935 9.13366 8.7865 8.7865C9.13366 8.43935 9.48913 8.10092 9.8529 7.77121C10.2167 7.4415 10.5883 7.12092 10.9678 6.80946C11.3473 6.498 11.7343 6.19604 12.1286 5.90358C12.5229 5.61111 12.9242 5.3285 13.3324 5.05574C13.7407 4.78298 14.1553 4.5204 14.5764 4.268C14.9975 4.0156 15.4246 3.77368 15.8576 3.54224C16.2905 3.31081 16.7289 3.09013 17.1728 2.88022C17.6166 2.67031 18.0653 2.47142 18.5189 2.28354C18.9725 2.09566 19.4304 1.91902 19.8926 1.75362C20.3549 1.58822 20.8209 1.43426 21.2908 1.29175C21.7606 1.14923 22.2336 1.01832 22.7098 0.899032C23.1861 0.779739 23.665 0.672203 24.1465 0.576422C24.628 0.480641 25.1116 0.396732 25.5972 0.324694C26.0829 0.252655 26.57 0.192575 27.0586 0.144453C27.5472 0.0963311 28.0367 0.0602252 28.527 0.0361351C29.0174 0.012045 29.5081 0 29.999 0L29.999 0L29.999 0Z" id="Rectangle" fill="#FFFFFF" fill-opacity="0" fill-rule="evenodd" stroke="none" />
          <path d="M39.999 0L160.001 0Q160.983 0 161.964 0.0481805Q162.944 0.0963611 163.922 0.192606Q164.899 0.288851 165.87 0.432929Q166.841 0.577006 167.804 0.768569Q168.767 0.960133 169.72 1.19872Q170.672 1.43731 171.612 1.72234Q172.552 2.00738 173.476 2.33818Q174.401 2.66898 175.308 3.04474Q176.215 3.42051 177.103 3.84033Q177.99 4.26016 178.856 4.72303Q179.722 5.1859 180.565 5.69071Q181.407 6.19552 182.223 6.74105Q183.04 7.28657 183.828 7.8715Q184.617 8.45643 185.376 9.07935Q186.135 9.70228 186.863 10.3617Q187.59 11.0211 188.285 11.7154Q188.979 12.4098 189.638 13.1373Q190.298 13.8649 190.921 14.6239Q191.544 15.3829 192.128 16.1716Q192.713 16.9603 193.259 17.7767Q193.804 18.5932 194.309 19.4354Q194.814 20.2776 195.277 21.1436Q195.74 22.0096 196.16 22.8972Q196.579 23.7849 196.955 24.692Q197.331 25.5992 197.662 26.5237Q197.993 27.4483 198.278 28.3879Q198.563 29.3275 198.801 30.28Q199.04 31.2325 199.231 32.1956Q199.423 33.1586 199.567 34.1299Q199.711 35.1012 199.807 36.0784Q199.904 37.0556 199.952 38.0363Q200 39.0171 200 39.999L200 160.001Q200 160.983 199.952 161.964Q199.904 162.944 199.807 163.922Q199.711 164.899 199.567 165.87Q199.423 166.841 199.231 167.804Q199.04 168.767 198.801 169.72Q198.563 170.672 198.278 171.612Q197.993 172.552 197.662 173.476Q197.331 174.401 196.955 175.308Q196.579 176.215 196.16 177.103Q195.74 177.99 195.277 178.856Q194.814 179.722 194.309 180.565Q193.804 181.407 193.259 182.223Q192.713 183.04 192.128 183.828Q191.544 184.617 190.921 185.376Q190.298 186.135 189.638 186.863Q188.979 187.59 188.285 188.285Q187.59 188.979 186.863 189.638Q186.135 190.298 185.376 190.921Q184.617 191.544 183.828 192.128Q183.04 192.713 182.223 193.259Q181.407 193.804 180.565 194.309Q179.722 194.814 178.856 195.277Q177.99 195.74 177.103 196.16Q176.215 196.579 175.308 196.955Q174.401 197.331 173.476 197.662Q172.552 197.993 171.612 198.278Q170.672 198.563 169.72 198.801Q168.767 199.04 167.804 199.231Q166.841 199.423 165.87 199.567Q164.899 199.711 163.922 199.807Q162.944 199.904 161.964 199.952Q160.983 200 160.001 200L39.999 200Q39.0171 200 38.0363 199.952Q37.0556 199.904 36.0784 199.807Q35.1012 199.711 34.1299 199.567Q33.1586 199.423 32.1956 199.231Q31.2325 199.04 30.28 198.801Q29.3275 198.563 28.3879 198.278Q27.4483 197.993 26.5237 197.662Q25.5992 197.331 24.692 196.955Q23.7849 196.579 22.8972 196.16Q22.0096 195.74 21.1436 195.277Q20.2776 194.814 19.4354 194.309Q18.5932 193.804 17.7767 193.259Q16.9603 192.713 16.1716 192.128Q15.3829 191.544 14.6239 190.921Q13.8649 190.298 13.1373 189.638Q12.4098 188.979 11.7154 188.285Q11.0211 187.59 10.3617 186.863Q9.70228 186.135 9.07935 185.376Q8.45643 184.617 7.8715 183.828Q7.28657 183.04 6.74105 182.223Q6.19552 181.407 5.69071 180.565Q5.1859 179.722 4.72303 178.856Q4.26016 177.99 3.84033 177.103Q3.42051 176.215 3.04474 175.308Q2.66898 174.401 2.33818 173.476Q2.00738 172.552 1.72234 171.612Q1.43731 170.672 1.19872 169.72Q0.960133 168.767 0.768569 167.804Q0.577006 166.841 0.432929 165.87Q0.288851 164.899 0.192606 163.922Q0.0963611 162.944 0.0481805 161.964Q0 160.983 0 160.001L0 39.999Q0 39.0171 0.0481805 38.0363Q0.0963611 37.0556 0.192606 36.0784Q0.288851 35.1012 0.432929 34.1299Q0.577006 33.1586 0.768569 32.1956Q0.960133 31.2325 1.19872 30.28Q1.43731 29.3275 1.72234 28.3879Q2.00738 27.4483 2.33818 26.5237Q2.66898 25.5992 3.04474 24.692Q3.42051 23.7849 3.84033 22.8972Q4.26016 22.0096 4.72303 21.1436Q5.1859 20.2776 5.69071 19.4354Q6.19552 18.5932 6.74105 17.7767Q7.28657 16.9603 7.8715 16.1716Q8.45643 15.3829 9.07935 14.6239Q9.70228 13.8649 10.3617 13.1373Q11.0211 12.4098 11.7154 11.7154Q12.4098 11.0211 13.1373 10.3617Q13.8649 9.70228 14.6239 9.07935Q15.3829 8.45643 16.1716 7.8715Q16.9603 7.28657 17.7767 6.74105Q18.5932 6.19552 19.4354 5.69071Q20.2776 5.1859 21.1436 4.72303Q22.0096 4.26016 22.8972 3.84033Q23.7849 3.42051 24.692 3.04474Q25.5992 2.66898 26.5237 2.33818Q27.4483 2.00738 28.3879 1.72234Q29.3275 1.43731 30.28 1.19872Q31.2325 0.960133 32.1956 0.768569Q33.1586 0.577006 34.1299 0.432929Q35.1012 0.288851 36.0784 0.192606Q37.0556 0.0963611 38.0363 0.0481805Q39.0171 0 39.999 0Z" id="Rectangle-2" fill="#FFFFFF" fill-rule="evenodd" stroke="none" />
          <g id="m" transform="translate(33 60.690002)">
            <path d="M113.417 38.8205C113.417 36.2107 112.909 33.7096 111.894 31.3174C110.879 28.9251 109.484 26.8409 107.708 25.0648C105.932 23.2887 103.866 21.8569 101.51 20.7695C99.1535 19.6821 96.6706 19.1384 94.0608 19.1384C91.451 19.1384 88.9681 19.6821 86.612 20.7695C84.256 21.8569 82.1899 23.2887 80.4138 25.0648C78.6377 26.8409 77.206 28.9251 76.1186 31.3174C75.0312 33.7096 74.4874 36.2107 74.4874 38.8205L74.4874 76.1186L56.8714 76.1186L56.8714 38.8205C56.8714 36.2107 56.3277 33.7096 55.2403 31.3174C54.1529 28.9251 52.7212 26.8409 50.9451 25.0648C49.169 23.2887 47.1029 21.8569 44.7468 20.7695C42.3908 19.6821 39.9079 19.1384 37.2981 19.1384C34.6883 19.1384 32.2235 19.6821 29.9037 20.7695C27.5839 21.8569 25.536 23.2887 23.7599 25.0648C21.9838 26.8409 20.5883 28.9251 19.5733 31.3174C18.5584 33.7096 18.051 36.2107 18.051 38.8205L18.051 76.1186L0 76.1186L0 38.8205C0 33.5284 0.960543 28.5263 2.88163 23.8142C4.80272 19.1021 7.44874 14.9881 10.8197 11.4722C14.1907 7.9562 18.1416 5.16519 22.6725 3.09911C27.2033 1.03304 32.0785 0 37.2981 0C43.3151 0 48.6253 1.26864 53.2286 3.80593C57.832 6.34321 61.9823 9.53294 65.6794 13.3751C67.4918 11.4903 69.5035 9.7323 71.7146 8.10119C73.9256 6.47007 76.2635 5.05645 78.7283 3.8603C81.1931 2.66415 83.7123 1.72173 86.2858 1.03304C88.8594 0.344346 91.451 0 94.0608 0C99.2803 0 104.246 1.03304 108.958 3.09911C113.67 5.16519 117.803 7.9562 121.355 11.4722C124.907 14.9881 127.734 19.1021 129.837 23.8142C131.939 28.5263 132.99 33.5284 132.99 38.8205L132.99 76.1186L113.417 76.1186L113.417 38.8205L113.417 38.8205Z" id="Shape" fill="url(#gradient_1)" fill-rule="evenodd" stroke="none" />
          </g>
        </g>
      </g>
    </g>
  </g>
</svg>